<svg width="24" height="24" viewBox="0 0 24 24" fill="none" xmlns="http://www.w3.org/2000/svg">
<path d="M11.99 3C6.47 3 2 7.48 2 13C2 18.52 6.47 23 11.99 23C17.52 23 22 18.52 22 13C22 7.48 17.52 3 11.99 3ZM18.92 9H15.97C15.65 7.75 15.19 6.55 14.59 5.44C16.43 6.07 17.96 7.35 18.92 9ZM12 5.04C12.83 6.24 13.48 7.57 13.91 9H10.09C10.52 7.57 11.17 6.24 12 5.04ZM4.26 15C4.1 14.36 4 13.69 4 13C4 12.31 4.1 11.64 4.26 11H7.64C7.56 11.66 7.5 12.32 7.5 13C7.5 13.68 7.56 14.34 7.64 15H4.26ZM5.08 17H8.03C8.35 18.25 8.81 19.45 9.41 20.56C7.57 19.93 6.04 18.66 5.08 17ZM8.03 9H5.08C6.04 7.34 7.57 6.07 9.41 5.44C8.81 6.55 8.35 7.75 8.03 9ZM12 20.96C11.17 19.76 10.52 18.43 10.09 17H13.91C13.48 18.43 12.83 19.76 12 20.96ZM14.34 15H9.66C9.57 14.34 9.5 13.68 9.5 13C9.5 12.32 9.57 11.65 9.66 11H14.34C14.43 11.65 14.5 12.32 14.5 13C14.5 13.68 14.43 14.34 14.34 15ZM14.59 20.56C15.19 19.45 15.65 18.25 15.97 17H18.92C17.96 18.65 16.43 19.93 14.59 20.56ZM16.36 15C16.44 14.34 16.5 13.68 16.5 13C16.5 12.32 16.44 11.66 16.36 11H19.74C19.9 11.64 20 12.31 20 13C20 13.69 19.9 14.36 19.74 15H16.36Z" fill="#26AFFF"/>
</svg>
