<svg width="24" height="24" viewBox="0 0 24 24" fill="none" xmlns="http://www.w3.org/2000/svg">
<path d="M3.72458 13.0909H16.3635C16.966 13.0909 17.4544 12.6025 17.4544 12C17.4544 11.3975 16.966 10.9091 16.3635 10.9091H3.72458L5.13505 9.49868C5.56109 9.07271 5.56109 8.38195 5.13505 7.95591C4.70916 7.52987 4.0184 7.52987 3.59229 7.95591L0.319782 11.2284C0.294473 11.2537 0.270618 11.2801 0.247927 11.3077C0.2424 11.3145 0.237673 11.3217 0.232291 11.3286C0.215636 11.3498 0.199273 11.371 0.184291 11.3934C0.179927 11.4 0.176364 11.4069 0.172073 11.4135C0.157091 11.4369 0.1424 11.4606 0.129164 11.4852C0.126618 11.4901 0.124509 11.4953 0.121964 11.5001C0.108218 11.5268 0.0949818 11.5539 0.0834182 11.5818C0.0819636 11.5852 0.0809455 11.5889 0.0795636 11.5924C0.0677091 11.6217 0.0567273 11.6515 0.0474182 11.6821C0.0461818 11.686 0.0455273 11.69 0.0444364 11.6939C0.0356364 11.7239 0.0275636 11.7542 0.0213818 11.7853C0.0195636 11.7945 0.0187636 11.8041 0.0170909 11.8134C0.0125818 11.8391 0.00807273 11.8649 0.00552727 11.8911C0.00181818 11.9271 0 11.9635 0 12C0 12.0365 0.00181818 12.0729 0.00552727 12.1089C0.00807273 12.1356 0.0127273 12.1615 0.0171636 12.1875C0.0187636 12.1965 0.0195636 12.2057 0.0213818 12.2147C0.0276364 12.246 0.0356364 12.2766 0.0445091 12.307C0.0456 12.3105 0.0462545 12.3143 0.0473455 12.3179C0.0567273 12.3486 0.0677091 12.3787 0.0797091 12.4084C0.0810182 12.4116 0.0819636 12.415 0.0833455 12.4182C0.0949818 12.4463 0.108291 12.4735 0.122182 12.5004C0.124582 12.5051 0.126618 12.51 0.129091 12.5148C0.142473 12.5396 0.157236 12.5634 0.172436 12.587C0.176509 12.5934 0.18 12.6002 0.184218 12.6065C0.199273 12.6289 0.215782 12.6503 0.232364 12.6716C0.237673 12.6784 0.2424 12.6856 0.247855 12.6923C0.270618 12.7198 0.294473 12.7463 0.319709 12.7716L3.59222 16.0441C3.80524 16.2572 4.08444 16.3636 4.36364 16.3636C4.64284 16.3636 4.92204 16.2572 5.13498 16.0441C5.56102 15.618 5.56102 14.9273 5.13498 14.5013L3.72458 13.0909Z" fill="#26AFFF"/>
<path d="M15.0763 3.07629C12.0985 3.07629 9.32806 4.55353 7.66515 7.02778C7.32915 7.52778 7.4621 8.2056 7.9621 8.54167C8.46217 8.87767 9.13992 8.74487 9.47606 8.24473C10.7329 6.37455 12.8264 5.25804 15.0763 5.25804C18.7937 5.25811 21.8182 8.28247 21.8182 12C21.8182 15.7175 18.7937 18.7419 15.0763 18.7419C12.833 18.7419 10.7429 17.6304 9.48515 15.7687C9.14777 15.2694 8.46981 15.1382 7.97046 15.4755C7.47126 15.8128 7.33992 16.4909 7.67723 16.9901C9.3413 19.4532 12.1073 20.9237 15.0763 20.9237C19.9968 20.9237 24 16.9206 24 12C24 7.07942 19.9968 3.07629 15.0763 3.07629Z" fill="#26AFFF"/>
</svg>
