<svg width="27" height="27" viewBox="0 0 27 27" fill="none" xmlns="http://www.w3.org/2000/svg">
<path d="M7.4475 12.1387C9.0675 15.3225 11.6775 17.9212 14.8613 19.5525L17.3362 17.0775C17.64 16.7738 18.09 16.6725 18.4838 16.8075C19.7438 17.2237 21.105 17.4488 22.5 17.4488C23.1188 17.4488 23.625 17.955 23.625 18.5738V22.5C23.625 23.1188 23.1188 23.625 22.5 23.625C11.9362 23.625 3.375 15.0638 3.375 4.5C3.375 3.88125 3.88125 3.375 4.5 3.375H8.4375C9.05625 3.375 9.5625 3.88125 9.5625 4.5C9.5625 5.90625 9.7875 7.25625 10.2037 8.51625C10.3275 8.91 10.2375 9.34875 9.9225 9.66375L7.4475 12.1387Z" fill="#26AFFF"/>
</svg>
